<?xml version="1.0" standalone="no"?>
<!DOCTYPE svg PUBLIC "-//W3C//DTD SVG 20010904//EN"
 "http://www.w3.org/TR/2001/REC-SVG-20010904/DTD/svg10.dtd">
<svg version="1.0" xmlns="http://www.w3.org/2000/svg"
 width="512.000000pt" height="512.000000pt" viewBox="0 0 512.000000 512.000000"
 preserveAspectRatio="xMidYMid meet">
<metadata>
Created by potrace 1.14, written by Peter Selinger 2001-2017
</metadata>
<g transform="translate(0.000000,512.000000) scale(0.100000,-0.100000)"
fill="#000000" stroke="none">
<path d="M2355 5030 c-679 -60 -1304 -393 -1727 -920 -286 -357 -469 -792
-530 -1260 -29 -228 -11 -574 43 -830 67 -312 264 -734 448 -960 l36 -44 5
-141 c5 -123 9 -147 31 -196 34 -71 87 -125 158 -157 51 -23 71 -26 219 -30
l163 -5 82 -49 c115 -69 233 -128 367 -181 711 -284 1531 -216 2187 181 l82
49 163 5 c148 4 168 7 219 30 71 32 125 86 157 157 23 49 27 74 31 196 l6 141
36 44 c20 25 66 90 102 145 537 825 539 1877 5 2703 -335 518 -861 896 -1465
1052 -235 61 -581 91 -818 70z m-154 -3360 c68 -35 117 -139 103 -218 -31
-173 -223 -239 -340 -118 -47 50 -70 116 -60 177 24 152 164 226 297 159z
m409 3 c14 -18 20 -36 16 -53 -8 -41 -445 -853 -472 -877 -33 -30 -50 -29 -86
7 -24 25 -29 36 -23 58 8 35 453 875 468 884 28 18 76 8 97 -19z m538 -9 c22
-25 22 -29 22 -313 0 -285 0 -288 -22 -309 -49 -45 -125 -36 -153 19 -20 37
-22 543 -3 585 26 56 113 67 156 18z m707 5 c145 -74 148 -244 7 -355 -26 -21
-51 -41 -56 -45 -5 -4 24 -45 64 -91 40 -46 75 -85 77 -88 2 -2 30 23 61 57
67 72 89 81 125 52 41 -32 36 -74 -17 -147 -24 -33 -49 -63 -55 -66 -7 -5 12
-34 48 -77 32 -39 61 -78 64 -88 7 -29 -20 -80 -48 -91 -43 -16 -71 -2 -130
66 l-56 63 -52 -42 c-81 -66 -147 -90 -243 -91 -72 0 -89 4 -147 32 -77 38
-122 87 -142 156 -29 95 -11 190 50 270 23 30 46 49 134 112 2 2 -11 22 -29
44 -64 81 -75 156 -34 238 43 86 118 122 244 119 69 -2 95 -7 135 -28z m-2540
1 c18 -20 18 -61 -1 -202 l-7 -48 61 0 c68 0 60 -16 83 149 15 107 43 138 104
115 28 -11 33 -45 19 -139 -19 -134 -22 -125 35 -125 53 0 101 -14 113 -33 13
-20 9 -60 -9 -79 -13 -14 -31 -18 -94 -18 -87 0 -80 8 -95 -102 l-6 -48 68 0
c79 0 104 -16 104 -66 0 -48 -29 -64 -116 -64 -83 0 -74 13 -95 -140 -14 -106
-28 -130 -74 -130 -25 0 -39 6 -50 24 -14 21 -14 34 0 131 8 60 15 110 15 112
0 2 -27 3 -59 3 -69 0 -64 8 -82 -130 -6 -52 -18 -105 -25 -117 -19 -30 -73
-31 -98 -4 -16 18 -17 28 -7 108 6 48 14 100 17 116 l6 27 -65 0 c-76 0 -109
20 -109 63 0 51 26 67 112 67 l78 0 6 48 c4 26 9 59 12 75 l6 27 -69 0 c-82 0
-106 14 -106 59 0 50 21 64 112 69 45 2 81 8 81 12 0 3 7 56 15 116 12 87 19
113 36 127 28 23 62 22 84 -3z m1352 -546 c107 -62 132 -220 51 -319 -107
-129 -309 -79 -348 87 -35 143 82 281 220 261 19 -3 54 -16 77 -29z m486 -224
c40 -44 37 -92 -7 -136 -38 -38 -70 -43 -116 -19 -35 18 -51 45 -52 86 -3 96
109 141 175 69z"/>
<path d="M2060 1540 c-45 -45 -15 -130 45 -130 41 0 65 29 65 77 0 40 -30 73
-65 73 -14 0 -34 -9 -45 -20z"/>
<path d="M3659 1557 c-49 -38 -47 -98 8 -158 34 -37 36 -38 63 -24 111 58 103
196 -12 195 -24 0 -50 -6 -59 -13z"/>
<path d="M3578 1167 c-20 -17 -43 -43 -51 -57 -36 -61 -27 -145 22 -193 59
-59 192 -45 261 28 27 28 35 13 -89 158 -45 53 -88 97 -95 97 -6 0 -27 -15
-48 -33z"/>
<path d="M1286 1263 c-3 -16 -8 -49 -12 -75 l-6 -48 60 0 c67 0 59 -11 77 108
l7 42 -60 0 c-58 0 -61 -1 -66 -27z"/>
<path d="M2520 1000 c-45 -45 -15 -130 45 -130 41 0 65 29 65 77 0 40 -30 73
-65 73 -14 0 -34 -9 -45 -20z"/>
</g>
</svg>
